<svg xmlns="http://www.w3.org/2000/svg" version="1.1" xmlns:xlink="http://www.w3.org/1999/xlink" xmlns:svgjs="http://svgjs.com/svgjs" width="1920" height="1078" preserveAspectRatio="none" viewBox="0 0 1920 1078"><g mask="url(&quot;#SvgjsMask4686&quot;)" fill="none"><rect width="1920" height="1078" x="0" y="0" fill="url(#SvgjsLinearGradient4687)"></rect><path d="M356.6 1221.39C549.5 1171.64 609.64 651.94 905.45 643.7 1201.25 635.46 1179.87 778.45 1454.29 778.45 1728.72 778.45 1861.86 644.68 2003.14 643.7" stroke="rgba(250, 91, 61, 1)" stroke-width="2"></path><path d="M1060.35 1115.34C1262.64 1055.36 1326.27 485.55 1617.87 481.72 1909.46 477.89 2018.38 764.2 2175.38 772.78" stroke="rgba(250, 91, 61, 1)" stroke-width="2"></path><path d="M487.85 1183.5C685.39 1086.48 587.62 450.24 965.3 443.88 1342.97 437.52 1672.87 700.32 1920.19 702.6" stroke="rgba(250, 91, 61, 1)" stroke-width="2"></path><path d="M348.13 1091.68C534.59 1076.07 659.51 698.3 984.04 696.97 1308.56 695.64 1301.99 831.72 1619.94 831.72 1937.9 831.72 2093.34 697.71 2255.85 696.97" stroke="rgba(250, 91, 61, 1)" stroke-width="2"></path><path d="M528.21 1245.54C668.41 1233.9 595.17 977.14 1006.78 949.53 1418.4 921.92 1692.4 448.3 1963.93 432.09" stroke="rgba(250, 91, 61, 1)" stroke-width="2"></path></g><defs><mask id="SvgjsMask4686"><rect width="1920" height="1078" fill="#ffffff"></rect></mask><linearGradient x1="10.96%" y1="-19.53%" x2="89.04%" y2="119.53%" gradientUnits="userSpaceOnUse" id="SvgjsLinearGradient4687"><stop stop-color="rgba(49, 104, 160, 1)" offset="0"></stop><stop stop-color="rgba(29, 41, 81, 1)" offset="1"></stop></linearGradient></defs></svg>